<?xml version="1.0" encoding="iso-8859-1"?>
<!-- Generator: Adobe Illustrator 19.0.0, SVG Export Plug-In . SVG Version: 6.00 Build 0)  -->
<svg version="1.1" id="Capa_1" xmlns="http://www.w3.org/2000/svg" xmlns:xlink="http://www.w3.org/1999/xlink" x="0px" y="0px"
	 viewBox="0 0 58 58" style="enable-background:new 0 0 58 58;" xml:space="preserve">
<path style="fill:#5E5E60;" d="M0,6.5v4h3c0.552,0,1,0.447,1,1s-0.448,1-1,1H0v1h3c0.552,0,1,0.447,1,1s-0.448,1-1,1H0v1h3
	c0.552,0,1,0.447,1,1s-0.448,1-1,1H0v20h3c0.552,0,1,0.447,1,1s-0.448,1-1,1H0v1h3c0.552,0,1,0.447,1,1s-0.448,1-1,1H0v1h3
	c0.552,0,1,0.447,1,1s-0.448,1-1,1H0v1h3c0.552,0,1,0.447,1,1s-0.448,1-1,1H0v1h3c0.552,0,1,0.447,1,1s-0.448,1-1,1H0v2h58v-48H0z"
	/>
<path style="fill:#F3CC6D;" d="M4,39.5c0-0.553-0.448-1-1-1H0v2h3C3.552,40.5,4,40.053,4,39.5z"/>
<path style="fill:#F3CC6D;" d="M4,42.5c0-0.553-0.448-1-1-1H0v2h3C3.552,43.5,4,43.053,4,42.5z"/>
<path style="fill:#F3CC6D;" d="M4,45.5c0-0.553-0.448-1-1-1H0v2h3C3.552,46.5,4,46.053,4,45.5z"/>
<path style="fill:#F3CC6D;" d="M4,48.5c0-0.553-0.448-1-1-1H0v2h3C3.552,49.5,4,49.053,4,48.5z"/>
<path style="fill:#F3CC6D;" d="M4,51.5c0-0.553-0.448-1-1-1H0v2h3C3.552,52.5,4,52.053,4,51.5z"/>
<path style="fill:#F3CC6D;" d="M4,11.5c0-0.553-0.448-1-1-1H0v2h3C3.552,12.5,4,12.053,4,11.5z"/>
<path style="fill:#F3CC6D;" d="M4,14.5c0-0.553-0.448-1-1-1H0v2h3C3.552,15.5,4,15.053,4,14.5z"/>
<path style="fill:#F3CC6D;" d="M4,17.5c0-0.553-0.448-1-1-1H0v2h3C3.552,18.5,4,18.053,4,17.5z"/>
<circle style="fill:#E7ECED;" cx="27" cy="24.5" r="1"/>
<circle style="fill:#F3CC6D;" cx="27" cy="27.5" r="1"/>
<circle style="fill:#F3CC6D;" cx="27" cy="30.5" r="1"/>
<circle style="fill:#F3CC6D;" cx="27" cy="15.5" r="1"/>
<circle style="fill:#E7ECED;" cx="24" cy="17.5" r="1"/>
<circle style="fill:#E7ECED;" cx="24" cy="21.5" r="1"/>
<circle style="fill:#F3CC6D;" cx="55" cy="17.5" r="1"/>
<circle style="fill:#F3CC6D;" cx="55" cy="24.5" r="1"/>
<circle style="fill:#E7ECED;" cx="18" cy="38.5" r="1"/>
<circle style="fill:#E7ECED;" cx="15" cy="38.5" r="1"/>
<circle style="fill:#F3CC6D;" cx="12" cy="38.5" r="1"/>
<circle style="fill:#F3CC6D;" cx="3" cy="26.5" r="1"/>
<circle style="fill:#F3CC6D;" cx="3" cy="29.5" r="1"/>
<circle style="fill:#F3CC6D;" cx="3" cy="32.5" r="1"/>
<circle style="fill:#F3CC6D;" cx="27" cy="18.5" r="1"/>
<circle style="fill:#E7ECED;" cx="27" cy="21.5" r="1"/>
<path style="fill:#28812F;" d="M50.291,30.5H33.709C32.765,30.5,32,29.735,32,28.791V12.209c0-0.944,0.765-1.709,1.709-1.709h16.581
	c0.944,0,1.709,0.765,1.709,1.709v16.581C52,29.735,51.235,30.5,50.291,30.5z"/>
<rect x="32" y="3.5" style="fill:#546A79;" width="4" height="3"/>
<rect x="36" y="3.5" style="fill:#38454F;" width="4" height="3"/>
<rect x="40" y="3.5" style="fill:#546A79;" width="4" height="3"/>
<rect x="44" y="3.5" style="fill:#38454F;" width="4" height="3"/>
<rect x="48" y="3.5" style="fill:#546A79;" width="4" height="3"/>
<path style="fill:#BFA380;" d="M54,37.5h-2c-0.553,0-1-0.447-1-1s0.447-1,1-1h2c0.553,0,1,0.447,1,1S54.553,37.5,54,37.5z"/>
<path style="fill:#BFA380;" d="M54,41.5h-2c-0.553,0-1-0.447-1-1s0.447-1,1-1h2c0.553,0,1,0.447,1,1S54.553,41.5,54,41.5z"/>
<g>
	<path style="fill:#8F8F99;" d="M24,37.5h2c0.552,0,1-0.447,1-1s-0.448-1-1-1h-2c-0.552,0-1,0.447-1,1S23.448,37.5,24,37.5z"/>
	<path style="fill:#8F8F99;" d="M26,39.5h-2c-0.552,0-1,0.447-1,1s0.448,1,1,1h2c0.552,0,1-0.447,1-1S26.552,39.5,26,39.5z"/>
	<path style="fill:#8F8F99;" d="M26,43.5h-2c-0.552,0-1,0.447-1,1s0.448,1,1,1h2c0.552,0,1-0.447,1-1S26.552,43.5,26,43.5z"/>
	<path style="fill:#8F8F99;" d="M26,47.5h-2c-0.552,0-1,0.447-1,1s0.448,1,1,1h2c0.552,0,1-0.447,1-1S26.552,47.5,26,47.5z"/>
</g>
<path style="fill:#BFA380;" d="M54,45.5h-2c-0.553,0-1-0.447-1-1s0.447-1,1-1h2c0.553,0,1,0.447,1,1S54.553,45.5,54,45.5z"/>
<path style="fill:#BFA380;" d="M54,49.5h-2c-0.553,0-1-0.447-1-1s0.447-1,1-1h2c0.553,0,1,0.447,1,1S54.553,49.5,54,49.5z"/>
<path style="fill:#F3CC6D;" d="M20,45.5h-2c-0.552,0-1-0.447-1-1s0.448-1,1-1h2c0.552,0,1,0.447,1,1S20.552,45.5,20,45.5z"/>
<path style="fill:#F3CC6D;" d="M20,48.5h-2c-0.552,0-1-0.447-1-1s0.448-1,1-1h2c0.552,0,1,0.447,1,1S20.552,48.5,20,48.5z"/>
<path style="fill:#F3CC6D;" d="M12,45.5h-2c-0.552,0-1-0.447-1-1s0.448-1,1-1h2c0.552,0,1,0.447,1,1S12.552,45.5,12,45.5z"/>
<path style="fill:#F3CC6D;" d="M12,48.5h-2c-0.552,0-1-0.447-1-1s0.448-1,1-1h2c0.552,0,1,0.447,1,1S12.552,48.5,12,48.5z"/>
<path style="fill:#38454F;" d="M10,26.5c-0.552,0-1-0.447-1-1v-2c0-0.553,0.448-1,1-1s1,0.447,1,1v2C11,26.053,10.552,26.5,10,26.5z
	"/>
<path style="fill:#38454F;" d="M18,32.5c-0.552,0-1-0.447-1-1v-2c0-0.553,0.448-1,1-1s1,0.447,1,1v2C19,32.053,18.552,32.5,18,32.5z
	"/>
<rect x="7" y="29.5" style="fill:#333331;" width="5" height="5"/>
<rect x="37" y="15.5" style="fill:#333331;" width="10" height="10"/>
<g>
	<rect x="38" y="12.5" style="fill:#BFA380;" width="2" height="3"/>
	<rect x="41" y="12.5" style="fill:#BFA380;" width="2" height="3"/>
	<rect x="44" y="12.5" style="fill:#BFA380;" width="2" height="3"/>
	<rect x="38" y="25.5" style="fill:#BFA380;" width="2" height="3"/>
	<rect x="41" y="25.5" style="fill:#BFA380;" width="2" height="3"/>
	<rect x="44" y="25.5" style="fill:#BFA380;" width="2" height="3"/>
	<rect x="47" y="16.5" style="fill:#BFA380;" width="3" height="2"/>
	<rect x="47" y="19.5" style="fill:#BFA380;" width="3" height="2"/>
	<rect x="47" y="22.5" style="fill:#BFA380;" width="3" height="2"/>
	<rect x="34" y="16.5" style="fill:#BFA380;" width="3" height="2"/>
	<rect x="34" y="19.5" style="fill:#BFA380;" width="3" height="2"/>
	<rect x="34" y="22.5" style="fill:#BFA380;" width="3" height="2"/>
</g>
<rect x="16" y="6.5" style="fill:#353A37;" width="4" height="23"/>
<rect x="8" y="6.5" style="fill:#353A37;" width="4" height="17"/>
<rect x="12" y="42.5" style="fill:#333331;" width="6" height="7"/>
<rect x="26" y="42.5" style="fill:#38454F;" width="26" height="4"/>
<rect x="26" y="38.5" style="fill:#DD352E;" width="26" height="4"/>
<rect x="26" y="46.5" style="fill:#DD352E;" width="2" height="4"/>
<rect x="30" y="46.5" style="fill:#DD352E;" width="18" height="4"/>
<rect x="50" y="46.5" style="fill:#DD352E;" width="2" height="4"/>
<rect x="30" y="34.5" style="fill:#38454F;" width="18" height="4"/>
<rect x="50" y="34.5" style="fill:#38454F;" width="2" height="4"/>
<rect x="26" y="34.5" style="fill:#38454F;" width="2" height="4"/>
<g>
	<polygon style="fill:#283238;" points="28,38.5 28,46.5 28,50.5 30,50.5 30,46.5 30,38.5 30,34.5 28,34.5 	"/>
	<polygon style="fill:#283238;" points="48,34.5 48,38.5 48,46.5 48,50.5 50,50.5 50,46.5 50,38.5 50,34.5 	"/>
</g>
<path style="fill:#CBD4D8;" d="M27,4.5c0-0.553-0.448-1-1-1s-1,0.447-1,1v2h2V4.5z"/>
<path style="fill:#CBD4D8;" d="M30,4.5c0-0.553-0.448-1-1-1s-1,0.447-1,1v2h2V4.5z"/>
<path style="fill:#CBD4D8;" d="M56,4.5c0-0.553-0.447-1-1-1s-1,0.447-1,1v2h2V4.5z"/>
<g>
</g>
<g>
</g>
<g>
</g>
<g>
</g>
<g>
</g>
<g>
</g>
<g>
</g>
<g>
</g>
<g>
</g>
<g>
</g>
<g>
</g>
<g>
</g>
<g>
</g>
<g>
</g>
<g>
</g>
</svg>
